<?xml version="1.0" encoding="UTF-8" standalone="no"?>
<svg
   xmlns:svg="http://www.w3.org/2000/svg"
   xmlns="http://www.w3.org/2000/svg"
   version="1.0"
   width="390"
   height="580"
   id="svg1380">
<title>Крест Иисуса</title>
  <defs
     id="defs1383" />
  <path
     d="M 173.125,21.09375 L 173.125,57.03125 L 127.03125,57.03125 L 127.03125,98.4375 L 173.125,98.4375 L 173.125,142.96875 L 20,142.96875 L 20,187.5 L 173.125,187.5 L 173.125,386.28125 L 127.4375,348 L 127.4375,395.71875 L 173.125,434 L 173.125,550 L 216.875,550 L 216.875,470.625 L 262.59375,508.9375 L 262.59375,461.21875 L 216.875,422.90625 L 216.875,187.5 L 370,187.5 L 370,142.96875 L 216.875,142.96875 L 216.875,98.4375 L 262.96875,98.4375 L 262.96875,57.03125 L 216.875,57.03125 L 216.875,21.09375 L 173.125,21.09375 z "
     style="fill:#000000;fill-opacity:1;stroke:none;stroke-opacity:1"
     id="path4649" />
  <path
     d="M 173.125,16.25 C 170.45135,16.253563 168.28481,18.420098 168.28125,21.09375 L 168.28125,52.1875 L 127.03125,52.1875 C 124.3576,52.191063 122.19106,54.357598 122.1875,57.03125 L 122.1875,98.4375 C 122.19106,101.11115 124.3576,103.27769 127.03125,103.28125 L 168.28125,103.28125 L 168.28125,138.125 L 20,138.125 C 17.326348,138.12856 15.159813,140.2951 15.15625,142.96875 L 15.15625,187.5 C 15.159813,190.17365 17.326348,192.34019 20,192.34375 L 168.28125,192.34375 L 168.28125,375.875 L 130.5625,344.28125 C 129.11812,343.06869 127.10183,342.8033 125.39288,343.60081 C 123.68393,344.39832 122.59219,346.11412 122.59375,348 L 122.59375,395.71875 C 122.58936,397.15133 123.2185,398.51258 124.3125,399.4375 L 168.28125,436.28125 L 168.28125,550 C 168.28481,552.67365 170.45135,554.84019 173.125,554.84375 L 216.875,554.84375 C 219.54865,554.84019 221.71519,552.67365 221.71875,550 L 221.71875,481.03125 L 259.46875,512.65625 C 260.91313,513.86881 262.92942,514.1342 264.63837,513.33669 C 266.34732,512.53918 267.43906,510.82338 267.4375,508.9375 L 267.4375,461.21875 C 267.44189,459.78617 266.81275,458.42492 265.71875,457.5 L 221.71875,420.625 L 221.71875,192.34375 L 370,192.34375 C 372.67365,192.34019 374.84019,190.17365 374.84375,187.5 L 374.84375,142.96875 C 374.84019,140.2951 372.67365,138.12856 370,138.125 L 221.71875,138.125 L 221.71875,103.28125 L 262.96875,103.28125 C 265.6424,103.27769 267.80894,101.11115 267.8125,98.4375 L 267.8125,57.03125 C 267.80894,54.357598 265.6424,52.191063 262.96875,52.1875 L 221.71875,52.1875 L 221.71875,21.09375 C 221.71519,18.420098 219.54865,16.253563 216.875,16.25 L 173.125,16.25 z "
     style="fill:#ffffff;fill-opacity:1;stroke:none;stroke-opacity:1"
     id="path6400" />
  <path
     d="M 173.125,21.09375 L 173.125,57.03125 L 127.03125,57.03125 L 127.03125,98.4375 L 173.125,98.4375 L 173.125,142.96875 L 20,142.96875 L 20,187.5 L 173.125,187.5 L 173.125,386.28125 L 127.4375,348 L 127.4375,395.71875 L 173.125,434 L 173.125,550 L 216.875,550 L 216.875,470.625 L 262.59375,508.9375 L 262.59375,461.21875 L 216.875,422.90625 L 216.875,187.5 L 370,187.5 L 370,142.96875 L 216.875,142.96875 L 216.875,98.4375 L 262.96875,98.4375 L 262.96875,57.03125 L 216.875,57.03125 L 216.875,21.09375 L 173.125,21.09375 z "
     style="fill:#000000;fill-opacity:1;stroke:none;stroke-opacity:1"
     id="rect1389" />
</svg>
